<svg width="23" height="25" viewBox="0 0 23 25" fill="none" xmlns="http://www.w3.org/2000/svg">
<path d="M21.4122 10.0494L21.4123 10.0494C21.7871 10.4047 22 10.8995 22 11.4177V22.118C22 23.1596 21.1582 24 20.125 24H17.25C16.2168 24 15.375 23.1596 15.375 22.118V17.3147C15.375 16.2342 14.5005 15.3541 13.4167 15.3541H9.58333C8.49953 15.3541 7.625 16.2342 7.625 17.3147V22.118C7.625 23.1597 6.78324 24 5.75 24H2.875C1.84176 24 1 23.1597 1 22.118V11.4177C1 10.8995 1.21288 10.4046 1.58773 10.0494C1.58773 10.0494 1.58773 10.0494 1.58773 10.0494L10.8711 1.25101C11.2243 0.91633 11.7757 0.916328 12.1289 1.25101C12.1289 1.25101 12.1289 1.25101 12.1289 1.25101L21.4122 10.0494Z" stroke="white" stroke-width="2"/>
</svg>
