<svg width="28" height="28" viewBox="0 0 28 28" fill="none" xmlns="http://www.w3.org/2000/svg">
<path d="M13.5858 3.46275C14.2476 2.98999 15.167 3.46311 15.167 4.27649V23.7234C15.167 24.5368 14.2476 25.0099 13.5858 24.5372L7.00033 19.8333H3.16699C2.06242 19.8333 1.16699 18.9379 1.16699 17.8333V10.1666C1.16699 9.06206 2.06242 8.16663 3.16699 8.16663H7.00033L13.5858 3.46275Z" fill="white"/>
<path d="M18.6599 19.7228C20.1075 18.2492 21.0005 16.2289 21.0005 14C21.0005 11.7617 20.1 9.73372 18.6416 8.25854" stroke="white" stroke-width="2" stroke-linecap="round" stroke-linejoin="round"/>
<path d="M21.9082 4.92542C24.2306 7.24779 25.667 10.4561 25.667 14C25.667 17.5438 24.2306 20.7521 21.9082 23.0745" stroke="white" stroke-width="2" stroke-linecap="round" stroke-linejoin="round"/>
</svg>
