<svg width="23" height="23" viewBox="0 0 23 23" fill="none" xmlns="http://www.w3.org/2000/svg">
<path fill-rule="evenodd" clip-rule="evenodd" d="M2 7.66663C0.895431 7.66663 0 8.56206 0 9.66662V21C0 22.1045 0.89543 23 2 23H21C22.1046 23 23 22.1045 23 21V9.66663C23 8.56206 22.1046 7.66663 21 7.66663H2ZM9.10417 13.0094C9.10417 12.2416 9.93365 11.7602 10.6003 12.1412L14.2931 14.2513C14.9649 14.6352 14.9649 15.6039 14.2931 15.9878L10.6003 18.098C9.93365 18.4789 9.10417 17.9976 9.10417 17.2297V13.0094Z" fill="white"/>
<rect x="0.958008" y="3.83337" width="21.0833" height="1.91667" rx="0.958333" fill="white"/>
<rect x="1.91699" width="19.1667" height="1.91667" rx="0.958333" fill="white"/>
</svg>
