<svg width="29" height="29" viewBox="0 0 29 29" fill="none" xmlns="http://www.w3.org/2000/svg">
<path d="M26.4349 7.1264C27.0615 6.73473 27.0615 5.82207 26.4349 5.43041L19.655 1.19299C18.989 0.776707 18.125 1.25555 18.125 2.04098V10.5158C18.125 11.3013 18.989 11.7801 19.655 11.3638L26.4349 7.1264Z" fill="white"/>
<path d="M2.70185 22.8347C2.07518 22.443 2.07518 21.5303 2.70185 21.1387L9.48172 16.9012C10.1478 16.485 11.0117 16.9638 11.0117 17.7492L11.0117 26.2241C11.0117 27.0095 10.1478 27.4884 9.48172 27.0721L2.70185 22.8347Z" fill="white"/>
<path d="M4.83301 13.2916V13.2916C4.83301 9.28756 8.07894 6.04163 12.083 6.04163V6.04163H18.1247" stroke="white" stroke-width="2" stroke-linecap="round" stroke-linejoin="round"/>
<path d="M22.958 14.5V14.5C22.958 18.5041 19.7121 21.75 15.708 21.75V21.75H9.66634" stroke="white" stroke-width="2" stroke-linecap="round" stroke-linejoin="round"/>
</svg>
