<svg width="15" height="15" viewBox="0 0 15 15" fill="none" xmlns="http://www.w3.org/2000/svg">
<path fill-rule="evenodd" clip-rule="evenodd" d="M1.15561 7.85641C1.15561 7.85641 5.16163 12.8445 6.51366 14.5173C6.739 14.8233 7.11457 15 7.49013 15C7.89073 15 8.24126 14.8233 8.49164 14.5173C9.51818 13.2362 12.1722 9.96127 13.8497 7.85641C14.9514 6.47897 15.3019 4.59857 14.726 2.90471C14.3254 1.73459 13.4741 0.795427 12.3725 0.324678C11.2708 -0.146071 10.0189 -0.103204 8.94232 0.442106L7.49013 1.17525L6.06299 0.442106C4.98637 -0.103204 3.73449 -0.146071 2.63283 0.324678C1.53117 0.795427 0.679893 1.73459 0.279291 2.90471C-0.296575 4.59857 0.0289141 6.47897 1.15561 7.85641ZM7.61532 13.2409C7.59028 13.2776 7.54021 13.2988 7.49013 13.2988C7.46509 13.2988 7.41502 13.2776 7.38998 13.2409C6.58878 12.2729 2.25726 6.88477 2.25726 6.88477C1.4811 5.91678 1.25576 4.5952 1.65636 3.40456C1.90674 2.64362 2.45757 2.03283 3.18366 1.72653C3.90975 1.42049 4.71095 1.4483 5.41201 1.80318C6.38848 2.29601 7.18968 2.69947 7.18968 2.69947C7.38998 2.80235 7.61532 2.80235 7.81562 2.69947L9.59329 1.80318C10.2693 1.4483 11.0956 1.42049 11.8216 1.72653C12.5227 2.03283 13.0986 2.64362 13.3489 3.40456C13.7495 4.5952 13.5242 5.91678 12.723 6.88477C12.723 6.88477 8.39149 12.2729 7.61532 13.2409Z" fill="white"/>
</svg>
